<svg id="Capa_1" data-name="Capa 1" xmlns="http://www.w3.org/2000/svg" viewBox="0 0 420 420"><defs><style>.cls-1{fill:#fff;}</style></defs><title>pause</title><path class="cls-1" d="M210,21c104.22,0,189,84.78,189,189S314.22,399,210,399,21,314.22,21,210,105.78,21,210,21m0-21C94,0,0,94,0,210S94,420,210,420s210-94,210-210S326,0,210,0Z" transform="translate(0 0)"/><path class="cls-1" d="M259,108.94a35.1,35.1,0,0,0-35,35V276.07a35,35,0,0,0,70,0V143.94A35.1,35.1,0,0,0,259,108.94Zm14,167.13a14,14,0,0,1-28,0V143.94a14,14,0,0,1,28,0Z" transform="translate(0 0)"/><path class="cls-1" d="M161,108.94a35.1,35.1,0,0,0-35,35V276.07a35,35,0,0,0,70,0V143.94A35.1,35.1,0,0,0,161,108.94Zm14,167.13a14,14,0,0,1-28,0V143.94a14,14,0,0,1,28,0Z" transform="translate(0 0)"/></svg>