<svg id="Capa_1" data-name="Capa 1" xmlns="http://www.w3.org/2000/svg" viewBox="0 0 420 420"><defs><style>.cls-1{fill:#fff;}</style></defs><title>play</title><path class="cls-1" d="M210,21c104.22,0,189,84.78,189,189S314.22,399,210,399,21,314.22,21,210,105.78,21,210,21m0-21C94,0,0,94,0,210S94,420,210,420s210-94,210-210S326,0,210,0Z" transform="translate(0 0)"/><path class="cls-1" d="M293.91,187.21,182.09,113.62c-19.3-12.69-35.09-4.18-35.09,18.92V287.42c0,23.1,15.81,31.65,35.15,19l111.71-73.11C313.19,220.65,313.21,199.91,293.91,187.21ZM279,217.87l-99.3,65c-6.44,4.22-11.71,1.37-11.71-6.33V143.44c0-7.7,5.26-10.54,11.7-6.3L279,202.5C285.46,206.73,285.45,213.65,279,217.87Z" transform="translate(0 0)"/></svg>